<mxfile host="app.diagrams.net" agent="Mozilla/5.0 (X11; Linux x86_64) AppleWebKit/537.36 (KHTML, like Gecko) Chrome/131.0.0.0 Safari/537.36" version="26.0.16">
  <diagram name="ページ1" id="AUJEfgccu2CY6ples54n">
    <mxGraphModel dx="420" dy="242" grid="1" gridSize="10" guides="1" tooltips="1" connect="1" arrows="1" fold="1" page="1" pageScale="1" pageWidth="827" pageHeight="1169" math="1" shadow="0">
      <root>
        <mxCell id="0" />
        <mxCell id="1" parent="0" />
        <mxCell id="SMl_Zg6ai9nurZbYXPka-1" value="&lt;font style=&quot;font-size: 24px;&quot;&gt;$$x_0$$&lt;/font&gt;" style="rounded=0;whiteSpace=wrap;html=1;strokeColor=none;fillColor=none;" parent="1" vertex="1">
          <mxGeometry x="374" y="280" width="40" height="40" as="geometry" />
        </mxCell>
        <mxCell id="91woym72TOkMIXrKB3d9-1" value="&lt;font style=&quot;font-size: 24px;&quot;&gt;$$x_4$$&lt;/font&gt;" style="rounded=0;whiteSpace=wrap;html=1;strokeColor=none;fillColor=none;" vertex="1" parent="1">
          <mxGeometry x="374" y="320" width="40" height="40" as="geometry" />
        </mxCell>
        <mxCell id="91woym72TOkMIXrKB3d9-2" value="&lt;font style=&quot;font-size: 24px;&quot;&gt;$$x_2$$&lt;/font&gt;" style="rounded=0;whiteSpace=wrap;html=1;strokeColor=none;fillColor=none;" vertex="1" parent="1">
          <mxGeometry x="374" y="360" width="40" height="40" as="geometry" />
        </mxCell>
        <mxCell id="91woym72TOkMIXrKB3d9-3" value="&lt;font style=&quot;font-size: 24px;&quot;&gt;$$x_6$$&lt;/font&gt;" style="rounded=0;whiteSpace=wrap;html=1;strokeColor=none;fillColor=none;" vertex="1" parent="1">
          <mxGeometry x="374" y="400" width="40" height="40" as="geometry" />
        </mxCell>
        <mxCell id="91woym72TOkMIXrKB3d9-4" value="&lt;font style=&quot;font-size: 24px;&quot;&gt;$$x_1$$&lt;/font&gt;" style="rounded=0;whiteSpace=wrap;html=1;strokeColor=none;fillColor=none;" vertex="1" parent="1">
          <mxGeometry x="374" y="440" width="40" height="40" as="geometry" />
        </mxCell>
        <mxCell id="91woym72TOkMIXrKB3d9-5" value="&lt;font style=&quot;font-size: 24px;&quot;&gt;$$x_5$$&lt;/font&gt;" style="rounded=0;whiteSpace=wrap;html=1;strokeColor=none;fillColor=none;" vertex="1" parent="1">
          <mxGeometry x="374" y="480" width="40" height="40" as="geometry" />
        </mxCell>
        <mxCell id="91woym72TOkMIXrKB3d9-6" value="&lt;font style=&quot;font-size: 24px;&quot;&gt;$$x_3$$&lt;/font&gt;" style="rounded=0;whiteSpace=wrap;html=1;strokeColor=none;fillColor=none;" vertex="1" parent="1">
          <mxGeometry x="374" y="520" width="40" height="40" as="geometry" />
        </mxCell>
        <mxCell id="91woym72TOkMIXrKB3d9-7" value="&lt;font style=&quot;font-size: 24px;&quot;&gt;$$x_7$$&lt;/font&gt;" style="rounded=0;whiteSpace=wrap;html=1;strokeColor=none;fillColor=none;" vertex="1" parent="1">
          <mxGeometry x="374" y="560" width="40" height="40" as="geometry" />
        </mxCell>
        <mxCell id="91woym72TOkMIXrKB3d9-8" value="&lt;font style=&quot;font-size: 20px;&quot;&gt;DFT1&lt;/font&gt;" style="rounded=0;whiteSpace=wrap;html=1;" vertex="1" parent="1">
          <mxGeometry x="440" y="290" width="60" height="20" as="geometry" />
        </mxCell>
        <mxCell id="91woym72TOkMIXrKB3d9-9" value="&lt;font style=&quot;font-size: 20px;&quot;&gt;DFT1&lt;/font&gt;" style="rounded=0;whiteSpace=wrap;html=1;" vertex="1" parent="1">
          <mxGeometry x="440" y="330" width="60" height="20" as="geometry" />
        </mxCell>
        <mxCell id="91woym72TOkMIXrKB3d9-10" value="&lt;font style=&quot;font-size: 20px;&quot;&gt;DFT1&lt;/font&gt;" style="rounded=0;whiteSpace=wrap;html=1;" vertex="1" parent="1">
          <mxGeometry x="440" y="370" width="60" height="20" as="geometry" />
        </mxCell>
        <mxCell id="91woym72TOkMIXrKB3d9-11" value="&lt;font style=&quot;font-size: 20px;&quot;&gt;DFT1&lt;/font&gt;" style="rounded=0;whiteSpace=wrap;html=1;" vertex="1" parent="1">
          <mxGeometry x="440" y="410" width="60" height="20" as="geometry" />
        </mxCell>
        <mxCell id="91woym72TOkMIXrKB3d9-12" value="&lt;font style=&quot;font-size: 20px;&quot;&gt;DFT1&lt;/font&gt;" style="rounded=0;whiteSpace=wrap;html=1;" vertex="1" parent="1">
          <mxGeometry x="440" y="450" width="60" height="20" as="geometry" />
        </mxCell>
        <mxCell id="91woym72TOkMIXrKB3d9-13" value="&lt;font style=&quot;font-size: 20px;&quot;&gt;DFT1&lt;/font&gt;" style="rounded=0;whiteSpace=wrap;html=1;" vertex="1" parent="1">
          <mxGeometry x="440" y="490" width="60" height="20" as="geometry" />
        </mxCell>
        <mxCell id="91woym72TOkMIXrKB3d9-14" value="&lt;font style=&quot;font-size: 20px;&quot;&gt;DFT1&lt;/font&gt;" style="rounded=0;whiteSpace=wrap;html=1;" vertex="1" parent="1">
          <mxGeometry x="440" y="530" width="60" height="20" as="geometry" />
        </mxCell>
        <mxCell id="91woym72TOkMIXrKB3d9-15" value="&lt;font style=&quot;font-size: 20px;&quot;&gt;DFT1&lt;/font&gt;" style="rounded=0;whiteSpace=wrap;html=1;" vertex="1" parent="1">
          <mxGeometry x="440" y="570" width="60" height="20" as="geometry" />
        </mxCell>
        <mxCell id="91woym72TOkMIXrKB3d9-16" value="&lt;div style=&quot;line-height: 90%;&quot;&gt;&lt;font style=&quot;font-size: 18px; line-height: 90%;&quot;&gt;D&lt;/font&gt;&lt;div&gt;&lt;font style=&quot;font-size: 18px; line-height: 90%;&quot;&gt;F&lt;/font&gt;&lt;/div&gt;&lt;div&gt;&lt;font style=&quot;font-size: 18px; line-height: 90%;&quot;&gt;T&lt;/font&gt;&lt;/div&gt;&lt;div&gt;&lt;font style=&quot;font-size: 18px; line-height: 90%;&quot;&gt;2&lt;/font&gt;&lt;/div&gt;&lt;/div&gt;" style="rounded=0;whiteSpace=wrap;html=1;spacing=2;" vertex="1" parent="1">
          <mxGeometry x="530" y="285" width="30" height="70" as="geometry" />
        </mxCell>
        <mxCell id="91woym72TOkMIXrKB3d9-23" value="&lt;div style=&quot;line-height: 90%;&quot;&gt;&lt;font style=&quot;font-size: 18px; line-height: 90%;&quot;&gt;D&lt;/font&gt;&lt;div&gt;&lt;font style=&quot;font-size: 18px; line-height: 90%;&quot;&gt;F&lt;/font&gt;&lt;/div&gt;&lt;div&gt;&lt;font style=&quot;font-size: 18px; line-height: 90%;&quot;&gt;T&lt;/font&gt;&lt;/div&gt;&lt;div&gt;&lt;font style=&quot;font-size: 18px; line-height: 90%;&quot;&gt;2&lt;/font&gt;&lt;/div&gt;&lt;/div&gt;" style="rounded=0;whiteSpace=wrap;html=1;spacing=2;" vertex="1" parent="1">
          <mxGeometry x="530" y="365" width="30" height="70" as="geometry" />
        </mxCell>
        <mxCell id="91woym72TOkMIXrKB3d9-24" value="&lt;div style=&quot;line-height: 90%;&quot;&gt;&lt;font style=&quot;font-size: 18px; line-height: 90%;&quot;&gt;D&lt;/font&gt;&lt;div&gt;&lt;font style=&quot;font-size: 18px; line-height: 90%;&quot;&gt;F&lt;/font&gt;&lt;/div&gt;&lt;div&gt;&lt;font style=&quot;font-size: 18px; line-height: 90%;&quot;&gt;T&lt;/font&gt;&lt;/div&gt;&lt;div&gt;&lt;font style=&quot;font-size: 18px; line-height: 90%;&quot;&gt;2&lt;/font&gt;&lt;/div&gt;&lt;/div&gt;" style="rounded=0;whiteSpace=wrap;html=1;spacing=2;" vertex="1" parent="1">
          <mxGeometry x="530" y="445" width="30" height="70" as="geometry" />
        </mxCell>
        <mxCell id="91woym72TOkMIXrKB3d9-25" value="&lt;div style=&quot;line-height: 90%;&quot;&gt;&lt;font style=&quot;font-size: 18px; line-height: 90%;&quot;&gt;D&lt;/font&gt;&lt;div&gt;&lt;font style=&quot;font-size: 18px; line-height: 90%;&quot;&gt;F&lt;/font&gt;&lt;/div&gt;&lt;div&gt;&lt;font style=&quot;font-size: 18px; line-height: 90%;&quot;&gt;T&lt;/font&gt;&lt;/div&gt;&lt;div&gt;&lt;font style=&quot;font-size: 18px; line-height: 90%;&quot;&gt;2&lt;/font&gt;&lt;/div&gt;&lt;/div&gt;" style="rounded=0;whiteSpace=wrap;html=1;spacing=2;" vertex="1" parent="1">
          <mxGeometry x="530" y="525" width="30" height="70" as="geometry" />
        </mxCell>
        <mxCell id="91woym72TOkMIXrKB3d9-26" value="&lt;div style=&quot;line-height: 100%;&quot;&gt;&lt;font style=&quot;font-size: 18px; line-height: 100%;&quot;&gt;D&lt;/font&gt;&lt;div&gt;&lt;font style=&quot;font-size: 18px; line-height: 100%;&quot;&gt;F&lt;/font&gt;&lt;/div&gt;&lt;div&gt;&lt;font style=&quot;font-size: 18px; line-height: 100%;&quot;&gt;T&lt;/font&gt;&lt;/div&gt;&lt;div&gt;&lt;span style=&quot;font-size: 18px; line-height: 100%;&quot;&gt;4&lt;/span&gt;&lt;/div&gt;&lt;/div&gt;" style="rounded=0;whiteSpace=wrap;html=1;spacing=2;" vertex="1" parent="1">
          <mxGeometry x="590" y="285" width="30" height="145" as="geometry" />
        </mxCell>
        <mxCell id="91woym72TOkMIXrKB3d9-27" value="&lt;div style=&quot;line-height: 100%;&quot;&gt;&lt;font style=&quot;font-size: 18px; line-height: 100%;&quot;&gt;D&lt;/font&gt;&lt;div&gt;&lt;font style=&quot;font-size: 18px; line-height: 100%;&quot;&gt;F&lt;/font&gt;&lt;/div&gt;&lt;div&gt;&lt;font style=&quot;font-size: 18px; line-height: 100%;&quot;&gt;T&lt;/font&gt;&lt;/div&gt;&lt;div&gt;&lt;span style=&quot;font-size: 18px; line-height: 100%;&quot;&gt;4&lt;/span&gt;&lt;/div&gt;&lt;/div&gt;" style="rounded=0;whiteSpace=wrap;html=1;spacing=2;" vertex="1" parent="1">
          <mxGeometry x="590" y="445" width="30" height="145" as="geometry" />
        </mxCell>
        <mxCell id="91woym72TOkMIXrKB3d9-28" value="&lt;div style=&quot;line-height: 100%;&quot;&gt;&lt;font style=&quot;font-size: 18px; line-height: 100%;&quot;&gt;D&lt;/font&gt;&lt;div&gt;&lt;font style=&quot;font-size: 18px; line-height: 100%;&quot;&gt;F&lt;/font&gt;&lt;/div&gt;&lt;div&gt;&lt;font style=&quot;font-size: 18px; line-height: 100%;&quot;&gt;T&lt;/font&gt;&lt;/div&gt;&lt;div&gt;&lt;span style=&quot;font-size: 18px; line-height: 100%;&quot;&gt;8&lt;/span&gt;&lt;/div&gt;&lt;/div&gt;" style="rounded=0;whiteSpace=wrap;html=1;spacing=2;" vertex="1" parent="1">
          <mxGeometry x="650" y="285" width="30" height="305" as="geometry" />
        </mxCell>
        <mxCell id="91woym72TOkMIXrKB3d9-33" value="" style="endArrow=none;html=1;rounded=0;entryX=0;entryY=0.5;entryDx=0;entryDy=0;exitX=1;exitY=0.5;exitDx=0;exitDy=0;" edge="1" parent="1" source="SMl_Zg6ai9nurZbYXPka-1" target="91woym72TOkMIXrKB3d9-8">
          <mxGeometry width="50" height="50" relative="1" as="geometry">
            <mxPoint x="460" y="380" as="sourcePoint" />
            <mxPoint x="510" y="330" as="targetPoint" />
          </mxGeometry>
        </mxCell>
        <mxCell id="91woym72TOkMIXrKB3d9-34" value="" style="endArrow=none;html=1;rounded=0;entryX=0;entryY=0.5;entryDx=0;entryDy=0;exitX=1;exitY=0.5;exitDx=0;exitDy=0;" edge="1" parent="1" source="91woym72TOkMIXrKB3d9-1" target="91woym72TOkMIXrKB3d9-9">
          <mxGeometry width="50" height="50" relative="1" as="geometry">
            <mxPoint x="424" y="310" as="sourcePoint" />
            <mxPoint x="450" y="310" as="targetPoint" />
          </mxGeometry>
        </mxCell>
        <mxCell id="91woym72TOkMIXrKB3d9-35" value="" style="endArrow=none;html=1;rounded=0;entryX=0;entryY=0.5;entryDx=0;entryDy=0;exitX=1;exitY=0.5;exitDx=0;exitDy=0;" edge="1" parent="1" source="91woym72TOkMIXrKB3d9-2" target="91woym72TOkMIXrKB3d9-10">
          <mxGeometry width="50" height="50" relative="1" as="geometry">
            <mxPoint x="434" y="320" as="sourcePoint" />
            <mxPoint x="460" y="320" as="targetPoint" />
          </mxGeometry>
        </mxCell>
        <mxCell id="91woym72TOkMIXrKB3d9-36" value="" style="endArrow=none;html=1;rounded=0;entryX=0;entryY=0.5;entryDx=0;entryDy=0;exitX=1;exitY=0.5;exitDx=0;exitDy=0;" edge="1" parent="1" source="91woym72TOkMIXrKB3d9-3" target="91woym72TOkMIXrKB3d9-11">
          <mxGeometry width="50" height="50" relative="1" as="geometry">
            <mxPoint x="444" y="330" as="sourcePoint" />
            <mxPoint x="470" y="330" as="targetPoint" />
          </mxGeometry>
        </mxCell>
        <mxCell id="91woym72TOkMIXrKB3d9-37" value="" style="endArrow=none;html=1;rounded=0;entryX=0;entryY=0.5;entryDx=0;entryDy=0;exitX=1;exitY=0.5;exitDx=0;exitDy=0;" edge="1" parent="1" source="91woym72TOkMIXrKB3d9-4">
          <mxGeometry width="50" height="50" relative="1" as="geometry">
            <mxPoint x="420" y="460" as="sourcePoint" />
            <mxPoint x="440" y="459.86" as="targetPoint" />
            <Array as="points">
              <mxPoint x="430" y="460" />
            </Array>
          </mxGeometry>
        </mxCell>
        <mxCell id="91woym72TOkMIXrKB3d9-38" value="" style="endArrow=none;html=1;rounded=0;entryX=0;entryY=0.5;entryDx=0;entryDy=0;exitX=1;exitY=0.5;exitDx=0;exitDy=0;" edge="1" parent="1">
          <mxGeometry width="50" height="50" relative="1" as="geometry">
            <mxPoint x="464" y="350" as="sourcePoint" />
            <mxPoint x="490" y="350" as="targetPoint" />
          </mxGeometry>
        </mxCell>
        <mxCell id="91woym72TOkMIXrKB3d9-40" value="" style="endArrow=none;html=1;rounded=0;entryX=0;entryY=0.5;entryDx=0;entryDy=0;exitX=1;exitY=0.5;exitDx=0;exitDy=0;" edge="1" parent="1" source="91woym72TOkMIXrKB3d9-5" target="91woym72TOkMIXrKB3d9-13">
          <mxGeometry width="50" height="50" relative="1" as="geometry">
            <mxPoint x="424" y="430" as="sourcePoint" />
            <mxPoint x="450" y="430" as="targetPoint" />
          </mxGeometry>
        </mxCell>
        <mxCell id="91woym72TOkMIXrKB3d9-41" value="" style="endArrow=none;html=1;rounded=0;entryX=0;entryY=0.5;entryDx=0;entryDy=0;exitX=1;exitY=0.5;exitDx=0;exitDy=0;" edge="1" parent="1" source="91woym72TOkMIXrKB3d9-6" target="91woym72TOkMIXrKB3d9-14">
          <mxGeometry width="50" height="50" relative="1" as="geometry">
            <mxPoint x="424" y="510" as="sourcePoint" />
            <mxPoint x="450" y="510" as="targetPoint" />
          </mxGeometry>
        </mxCell>
        <mxCell id="91woym72TOkMIXrKB3d9-42" value="" style="endArrow=none;html=1;rounded=0;entryX=0;entryY=0.5;entryDx=0;entryDy=0;exitX=1;exitY=0.5;exitDx=0;exitDy=0;" edge="1" parent="1" source="91woym72TOkMIXrKB3d9-7" target="91woym72TOkMIXrKB3d9-15">
          <mxGeometry width="50" height="50" relative="1" as="geometry">
            <mxPoint x="434" y="520" as="sourcePoint" />
            <mxPoint x="460" y="520" as="targetPoint" />
          </mxGeometry>
        </mxCell>
        <mxCell id="91woym72TOkMIXrKB3d9-43" value="" style="endArrow=none;html=1;rounded=0;entryX=0.001;entryY=0.783;entryDx=0;entryDy=0;exitX=1;exitY=0.5;exitDx=0;exitDy=0;entryPerimeter=0;" edge="1" parent="1" source="91woym72TOkMIXrKB3d9-15" target="91woym72TOkMIXrKB3d9-25">
          <mxGeometry width="50" height="50" relative="1" as="geometry">
            <mxPoint x="504" y="584" as="sourcePoint" />
            <mxPoint x="530" y="584" as="targetPoint" />
          </mxGeometry>
        </mxCell>
        <mxCell id="91woym72TOkMIXrKB3d9-44" value="" style="endArrow=none;html=1;rounded=0;entryX=0.004;entryY=0.214;entryDx=0;entryDy=0;exitX=1;exitY=0.5;exitDx=0;exitDy=0;entryPerimeter=0;" edge="1" parent="1" source="91woym72TOkMIXrKB3d9-14" target="91woym72TOkMIXrKB3d9-25">
          <mxGeometry width="50" height="50" relative="1" as="geometry">
            <mxPoint x="500" y="560" as="sourcePoint" />
            <mxPoint x="530" y="560" as="targetPoint" />
          </mxGeometry>
        </mxCell>
        <mxCell id="91woym72TOkMIXrKB3d9-45" value="" style="endArrow=none;html=1;rounded=0;entryX=0.008;entryY=0.786;entryDx=0;entryDy=0;exitX=1;exitY=0.5;exitDx=0;exitDy=0;entryPerimeter=0;" edge="1" parent="1" source="91woym72TOkMIXrKB3d9-13" target="91woym72TOkMIXrKB3d9-24">
          <mxGeometry width="50" height="50" relative="1" as="geometry">
            <mxPoint x="510" y="490" as="sourcePoint" />
            <mxPoint x="540" y="490" as="targetPoint" />
          </mxGeometry>
        </mxCell>
        <mxCell id="91woym72TOkMIXrKB3d9-46" value="" style="endArrow=none;html=1;rounded=0;entryX=0.003;entryY=0.214;entryDx=0;entryDy=0;exitX=1;exitY=0.5;exitDx=0;exitDy=0;entryPerimeter=0;" edge="1" parent="1" source="91woym72TOkMIXrKB3d9-12" target="91woym72TOkMIXrKB3d9-24">
          <mxGeometry width="50" height="50" relative="1" as="geometry">
            <mxPoint x="510" y="470" as="sourcePoint" />
            <mxPoint x="540" y="470" as="targetPoint" />
          </mxGeometry>
        </mxCell>
        <mxCell id="91woym72TOkMIXrKB3d9-47" value="" style="endArrow=none;html=1;rounded=0;entryX=0.003;entryY=0.783;entryDx=0;entryDy=0;exitX=1;exitY=0.5;exitDx=0;exitDy=0;entryPerimeter=0;" edge="1" parent="1" source="91woym72TOkMIXrKB3d9-11" target="91woym72TOkMIXrKB3d9-23">
          <mxGeometry width="50" height="50" relative="1" as="geometry">
            <mxPoint x="500" y="435" as="sourcePoint" />
            <mxPoint x="530" y="435" as="targetPoint" />
          </mxGeometry>
        </mxCell>
        <mxCell id="91woym72TOkMIXrKB3d9-48" value="" style="endArrow=none;html=1;rounded=0;entryX=0.001;entryY=0.211;entryDx=0;entryDy=0;exitX=1;exitY=0.5;exitDx=0;exitDy=0;entryPerimeter=0;" edge="1" parent="1" source="91woym72TOkMIXrKB3d9-10" target="91woym72TOkMIXrKB3d9-23">
          <mxGeometry width="50" height="50" relative="1" as="geometry">
            <mxPoint x="510" y="370" as="sourcePoint" />
            <mxPoint x="540" y="370" as="targetPoint" />
          </mxGeometry>
        </mxCell>
        <mxCell id="91woym72TOkMIXrKB3d9-49" value="" style="endArrow=none;html=1;rounded=0;entryX=0.004;entryY=0.784;entryDx=0;entryDy=0;exitX=1;exitY=0.5;exitDx=0;exitDy=0;entryPerimeter=0;" edge="1" parent="1" source="91woym72TOkMIXrKB3d9-9" target="91woym72TOkMIXrKB3d9-16">
          <mxGeometry width="50" height="50" relative="1" as="geometry">
            <mxPoint x="510" y="359.84" as="sourcePoint" />
            <mxPoint x="540" y="359.84" as="targetPoint" />
          </mxGeometry>
        </mxCell>
        <mxCell id="91woym72TOkMIXrKB3d9-50" value="" style="endArrow=none;html=1;rounded=0;entryX=0.003;entryY=0.213;entryDx=0;entryDy=0;exitX=1;exitY=0.5;exitDx=0;exitDy=0;entryPerimeter=0;" edge="1" parent="1" source="91woym72TOkMIXrKB3d9-8" target="91woym72TOkMIXrKB3d9-16">
          <mxGeometry width="50" height="50" relative="1" as="geometry">
            <mxPoint x="500" y="280" as="sourcePoint" />
            <mxPoint x="530" y="280" as="targetPoint" />
          </mxGeometry>
        </mxCell>
        <mxCell id="91woym72TOkMIXrKB3d9-51" value="" style="endArrow=none;html=1;rounded=0;entryX=-0.002;entryY=0.239;entryDx=0;entryDy=0;exitX=1;exitY=0.5;exitDx=0;exitDy=0;entryPerimeter=0;" edge="1" parent="1" source="91woym72TOkMIXrKB3d9-16" target="91woym72TOkMIXrKB3d9-26">
          <mxGeometry width="50" height="50" relative="1" as="geometry">
            <mxPoint x="580" y="270" as="sourcePoint" />
            <mxPoint x="610" y="270" as="targetPoint" />
          </mxGeometry>
        </mxCell>
        <mxCell id="91woym72TOkMIXrKB3d9-52" value="" style="endArrow=none;html=1;rounded=0;entryX=0.006;entryY=0.792;entryDx=0;entryDy=0;exitX=1;exitY=0.5;exitDx=0;exitDy=0;entryPerimeter=0;" edge="1" parent="1" source="91woym72TOkMIXrKB3d9-23" target="91woym72TOkMIXrKB3d9-26">
          <mxGeometry width="50" height="50" relative="1" as="geometry">
            <mxPoint x="570" y="390" as="sourcePoint" />
            <mxPoint x="600" y="390" as="targetPoint" />
          </mxGeometry>
        </mxCell>
        <mxCell id="91woym72TOkMIXrKB3d9-53" value="" style="endArrow=none;html=1;rounded=0;entryX=0.007;entryY=0.241;entryDx=0;entryDy=0;exitX=1;exitY=0.5;exitDx=0;exitDy=0;entryPerimeter=0;" edge="1" parent="1" source="91woym72TOkMIXrKB3d9-24" target="91woym72TOkMIXrKB3d9-27">
          <mxGeometry width="50" height="50" relative="1" as="geometry">
            <mxPoint x="570" y="470" as="sourcePoint" />
            <mxPoint x="600" y="470" as="targetPoint" />
          </mxGeometry>
        </mxCell>
        <mxCell id="91woym72TOkMIXrKB3d9-54" value="" style="endArrow=none;html=1;rounded=0;exitX=1;exitY=0.5;exitDx=0;exitDy=0;" edge="1" parent="1" source="91woym72TOkMIXrKB3d9-25">
          <mxGeometry width="50" height="50" relative="1" as="geometry">
            <mxPoint x="570" y="560" as="sourcePoint" />
            <mxPoint x="590" y="560" as="targetPoint" />
          </mxGeometry>
        </mxCell>
        <mxCell id="91woym72TOkMIXrKB3d9-55" value="" style="endArrow=none;html=1;rounded=0;entryX=-0.002;entryY=0.239;entryDx=0;entryDy=0;exitX=1;exitY=0.5;exitDx=0;exitDy=0;entryPerimeter=0;" edge="1" parent="1">
          <mxGeometry width="50" height="50" relative="1" as="geometry">
            <mxPoint x="620" y="355" as="sourcePoint" />
            <mxPoint x="650" y="355" as="targetPoint" />
          </mxGeometry>
        </mxCell>
        <mxCell id="91woym72TOkMIXrKB3d9-56" value="" style="endArrow=none;html=1;rounded=0;entryX=0.002;entryY=0.762;entryDx=0;entryDy=0;exitX=1;exitY=0.5;exitDx=0;exitDy=0;entryPerimeter=0;" edge="1" parent="1" source="91woym72TOkMIXrKB3d9-27" target="91woym72TOkMIXrKB3d9-28">
          <mxGeometry width="50" height="50" relative="1" as="geometry">
            <mxPoint x="640" y="510" as="sourcePoint" />
            <mxPoint x="670" y="510" as="targetPoint" />
          </mxGeometry>
        </mxCell>
        <mxCell id="91woym72TOkMIXrKB3d9-57" value="" style="rounded=0;whiteSpace=wrap;html=1;strokeColor=none;fillColor=none;" vertex="1" parent="1">
          <mxGeometry x="690" y="410" width="20" height="60" as="geometry" />
        </mxCell>
      </root>
    </mxGraphModel>
  </diagram>
</mxfile>
